<?xml version="1.0" standalone="no"?>
<!DOCTYPE svg PUBLIC "-//W3C//DTD SVG 20010904//EN"
 "http://www.w3.org/TR/2001/REC-SVG-20010904/DTD/svg10.dtd">
<svg version="1.0" xmlns="http://www.w3.org/2000/svg"
 width="147.000000pt" height="147.000000pt" viewBox="0 0 147.000000 147.000000"
 preserveAspectRatio="xMidYMid meet">
<metadata>
Created by potrace 1.11, written by Peter Selinger 2001-2013
</metadata>
<g transform="translate(0.000000,147.000000) scale(0.100000,-0.100000)"
fill="#000000" stroke="none">
<path d="M730 1463 c-160 -30 -326 -128 -442 -262 -73 -85 -98 -123 -141 -213
-58 -124 -77 -203 -82 -343 -11 -284 130 -515 365 -603 233 -86 514 -3 718
212 171 180 253 393 246 634 -8 276 -174 502 -415 565 -53 14 -198 20 -249 10z
m-125 -439 c52 -34 58 -60 58 -278 l0 -200 -27 -23 c-55 -47 -208 -61 -290
-25 -104 47 -117 175 -24 246 36 27 122 61 180 71 42 8 46 18 37 89 -13 104
-95 103 -151 -2 -29 -54 -98 -35 -98 26 1 42 41 84 107 108 50 19 171 12 208
-12z m503 2 c81 -42 124 -125 123 -238 -1 -73 -2 -77 -24 -144 -37 -108 -126
-172 -224 -162 -27 3 -56 9 -65 13 -16 6 -17 -2 -17 -92 1 -54 1 -113 0 -130
l-1 -33 -60 0 c-41 0 -60 4 -61 13 -7 61 -3 707 4 723 4 11 18 26 30 34 64 40
231 49 295 16z"/>
<path d="M470 742 c-62 -31 -92 -74 -81 -120 12 -52 25 -64 79 -70 44 -4 51
-2 62 17 14 27 18 177 4 190 -5 6 -30 0 -64 -17z"/>
<path d="M934 970 c-29 -11 -32 -30 -32 -222 l0 -167 31 -10 c47 -17 73 -13
106 15 51 42 81 191 53 264 -5 14 -9 27 -9 30 2 11 -37 67 -54 78 -26 16 -70
22 -95 12z"/>
</g>
</svg>
